<svg width="24" height="24" viewBox="0 0 24 24" fill="none" xmlns="http://www.w3.org/2000/svg">
<path d="M21.892 8.22366C21.641 7.61866 20.851 7.25666 19.778 7.25666C19.5705 7.25818 19.3632 7.27019 19.157 7.29266C19.7127 6.8883 20.1194 6.31181 20.314 5.65266C20.3624 5.38731 20.3419 5.11396 20.2544 4.85882C20.1668 4.60368 20.0152 4.37532 19.814 4.19566C19.6319 3.99385 19.4013 3.84195 19.144 3.75444C18.8867 3.66692 18.6113 3.64669 18.344 3.69566C17.685 3.88854 17.108 4.29304 16.702 4.84666C16.7241 4.63938 16.7358 4.43112 16.737 4.22266C16.737 3.14966 16.376 2.35966 15.77 2.10966C15.544 2.0269 15.2981 2.01562 15.0656 2.07733C14.8331 2.13905 14.6251 2.27078 14.47 2.45466C14.305 2.61866 13.833 3.09666 13.613 5.62766C13.1203 5.48759 12.5961 5.50609 12.1145 5.68055C11.633 5.855 11.2186 6.17656 10.93 6.59966L2.87896 18.0997C2.67668 18.3885 2.58265 18.7394 2.61337 19.0907C2.6441 19.442 2.79761 19.7713 3.04696 20.0207L3.98196 20.9557C4.23133 21.205 4.56058 21.3585 4.91189 21.3892C5.26319 21.42 5.61409 21.3259 5.90296 21.1237L17.403 13.0727C17.8267 12.7837 18.1484 12.3685 18.3224 11.886C18.4964 11.4036 18.5137 10.8785 18.372 10.3857C20.054 10.2397 21.12 9.95166 21.544 9.52766C21.7289 9.37241 21.8616 9.16394 21.9239 8.93061C21.9861 8.69728 21.975 8.45043 21.892 8.22366ZM18.536 4.67766C18.6433 4.65934 18.7537 4.6706 18.8552 4.71024C18.9567 4.74988 19.0454 4.8164 19.112 4.90266C19.1961 4.96787 19.2609 5.05466 19.2997 5.15379C19.3384 5.25292 19.3496 5.3607 19.332 5.46566C19.177 6.28066 17.532 7.30666 16.352 7.86566L16.136 7.64966C16.693 6.47066 17.718 4.83266 18.536 4.67766ZM15.182 3.16066C15.287 3.06066 15.366 3.02166 15.394 3.03266C15.503 3.07766 15.742 3.43966 15.742 4.22166C15.6977 5.09879 15.5493 5.96755 15.3 6.80966L14.751 6.26066C14.701 6.21066 14.642 6.17566 14.588 6.13066C14.723 4.13866 15.021 3.32166 15.182 3.16066ZM5.32996 20.2997C5.23361 20.3673 5.1165 20.3987 4.99925 20.3885C4.882 20.3782 4.77212 20.3269 4.68896 20.2437L3.75396 19.3087C3.67149 19.2254 3.6209 19.1158 3.61103 18.999C3.60116 18.8822 3.63263 18.7656 3.69996 18.6697L5.20696 16.5177L7.48196 18.7997L5.32996 20.2997ZM16.83 12.2477L14.967 13.5477L13.226 11.8057C13.1322 11.7118 13.005 11.659 12.8723 11.6589C12.7396 11.6588 12.6123 11.7114 12.5185 11.8052C12.4246 11.8989 12.3718 12.0261 12.3717 12.1588C12.3716 12.2915 12.4242 12.4188 12.518 12.5127L14.136 14.1307L11.636 15.8777L9.84996 14.0917C9.75566 14.0006 9.62936 13.9502 9.49826 13.9513C9.36716 13.9525 9.24175 14.005 9.14905 14.0978C9.05634 14.1905 9.00376 14.3159 9.00262 14.447C9.00148 14.5781 9.05188 14.7044 9.14296 14.7987L10.809 16.4657L8.30896 18.2127L5.78696 15.6857L9.86296 9.86266L11.03 11.0297C11.0761 11.0774 11.1313 11.1155 11.1923 11.1417C11.2533 11.1679 11.3189 11.1817 11.3853 11.1823C11.4516 11.1829 11.5175 11.1702 11.5789 11.1451C11.6404 11.1199 11.6962 11.0828 11.7432 11.0359C11.7901 10.9889 11.8272 10.9331 11.8524 10.8716C11.8775 10.8102 11.8902 10.7444 11.8896 10.678C11.889 10.6116 11.8752 10.546 11.849 10.485C11.8228 10.424 11.7847 10.3688 11.737 10.3227L10.446 9.03066L11.746 7.16766C11.8715 6.98778 12.0352 6.83778 12.2253 6.72837C12.4154 6.61896 12.6273 6.55282 12.846 6.53466C12.89 6.53466 12.934 6.52866 12.977 6.52866C13.3745 6.52875 13.7558 6.68664 14.037 6.96766L17.03 9.96066C17.0641 9.99829 17.0958 10.038 17.125 10.0797C17.1531 10.176 17.2104 10.2612 17.289 10.3237C17.4637 10.6448 17.5134 11.0193 17.4285 11.3749C17.3436 11.7306 17.13 12.0422 16.829 12.2497L16.83 12.2477ZM20.838 8.81566C20.675 8.97766 19.856 9.27566 17.869 9.41566C17.824 9.36166 17.788 9.30266 17.738 9.25266L17.189 8.70366C18.0307 8.45175 18.8995 8.30135 19.777 8.25566C20.559 8.25566 20.921 8.49566 20.967 8.60466C20.978 8.63066 20.944 8.71166 20.839 8.81766L20.838 8.81566Z" fill="#3A9B7A"/>
</svg>
