<svg width="24" height="24" viewBox="0 0 24 24" fill="none" xmlns="http://www.w3.org/2000/svg">
<path d="M22 13.5C21.9988 13.1909 21.902 12.8897 21.723 12.6377C21.544 12.3856 21.2915 12.195 21 12.092V7.5C20.9987 6.30693 20.5242 5.16311 19.6806 4.31948C18.8369 3.47585 17.6931 3.00132 16.5 3H7.50004C6.30697 3.00132 5.16315 3.47585 4.31952 4.31948C3.47589 5.16311 3.00136 6.30693 3.00004 7.5V12.092C2.6731 12.205 2.39557 12.428 2.21491 12.723C2.03425 13.0179 1.96169 13.3665 2.00965 13.7091C2.05761 14.0516 2.2231 14.3669 2.47782 14.6009C2.73254 14.8349 3.06065 14.9732 3.40604 14.992L5.01904 20.639C5.0492 20.7432 5.11243 20.8348 5.1992 20.8999C5.28596 20.965 5.39155 21.0002 5.50004 21H10.289C10.3886 20.9999 10.4859 20.97 10.5684 20.9142C10.6508 20.8585 10.7148 20.7793 10.752 20.687L11.837 18H12.152L13.146 20.674C13.1816 20.7697 13.2456 20.8523 13.3294 20.9106C13.4133 20.9688 13.5129 21.0001 13.615 21H18.5C18.6088 21 18.7146 20.9646 18.8014 20.8991C18.8882 20.8336 18.9512 20.7416 18.981 20.637L20.594 14.99C20.9736 14.9662 21.33 14.799 21.591 14.5224C21.852 14.2458 21.9982 13.8803 22 13.5ZM4.00004 7.5C4.00004 6.57174 4.36879 5.6815 5.02516 5.02513C5.68154 4.36875 6.57178 4 7.50004 4H16.5C17.4283 4 18.3185 4.36875 18.9749 5.02513C19.6313 5.6815 20 6.57174 20 7.5V12H19.984C19.9673 10.8851 19.6253 9.79926 19 8.876V7.5C19 6.83696 18.7366 6.20107 18.2678 5.73223C17.799 5.26339 17.1631 5 16.5 5H7.50004C6.837 5 6.20111 5.26339 5.73227 5.73223C5.26343 6.20107 5.00004 6.83696 5.00004 7.5V8.876C4.37475 9.79926 4.03275 10.8851 4.01604 12H4.00004V7.5ZM7.50004 8.429C8.83004 8.429 9.91104 10.014 9.98604 12H5.01404C5.08904 10.014 6.17004 8.429 7.50004 8.429ZM10.984 12C10.9 9.463 9.37604 7.429 7.50004 7.429C6.96369 7.43787 6.4419 7.60485 6.00004 7.909V7.5C6.00004 7.10218 6.15807 6.72064 6.43938 6.43934C6.72068 6.15804 7.10221 6 7.50004 6H16.5C16.8979 6 17.2794 6.15804 17.5607 6.43934C17.842 6.72064 18 7.10218 18 7.5V7.909C17.5582 7.60485 17.0364 7.43787 16.5 7.429C14.624 7.429 13.1 9.463 13.016 12H10.984ZM16.5 8.429C17.83 8.429 18.911 10.014 18.986 12H14.014C14.089 10.014 15.17 8.429 16.5 8.429ZM18.123 20H13.963L12.969 17.326C12.9335 17.2303 12.8695 17.1477 12.7857 17.0894C12.7018 17.0312 12.6021 16.9999 12.5 17H11.5C11.4003 16.9999 11.3028 17.0297 11.2201 17.0855C11.1375 17.1413 11.0733 17.2205 11.036 17.313L9.95104 20H5.87704L4.44904 15H19.549L18.123 20ZM20.5 14H3.50004C3.36743 14 3.24025 13.9473 3.14648 13.8536C3.05272 13.7598 3.00004 13.6326 3.00004 13.5C3.00004 13.3674 3.05272 13.2402 3.14648 13.1464C3.24025 13.0527 3.36743 13 3.50004 13H20.5C20.6326 13 20.7598 13.0527 20.8536 13.1464C20.9474 13.2402 21 13.3674 21 13.5C21 13.6326 20.9474 13.7598 20.8536 13.8536C20.7598 13.9473 20.6326 14 20.5 14Z" fill="#FFC120"/>
</svg>
