<svg width="24" height="24" viewBox="0 0 24 24" fill="none" xmlns="http://www.w3.org/2000/svg">
<path d="M22 11.7498C21.998 11.3114 21.9716 10.8734 21.921 10.4378C21.9058 10.3163 21.8465 10.2045 21.7544 10.1237C21.6622 10.043 21.5436 9.9989 21.421 9.99984H21V7.49984C20.9974 6.97898 20.8322 6.47194 20.5274 6.04955C20.2226 5.62716 19.7935 5.31052 19.3 5.14384L20.5 3.26784C20.5566 3.17917 20.5838 3.07492 20.5777 2.96991C20.5716 2.8649 20.5325 2.7645 20.4661 2.68297C20.3996 2.60144 20.3091 2.54295 20.2075 2.51582C20.1059 2.48869 19.9983 2.4943 19.9 2.53184L17.653 3.38084L16.435 1.25184C16.3876 1.17985 16.323 1.12076 16.2471 1.07987C16.1712 1.03898 16.0863 1.01758 16 1.01758C15.9138 1.01758 15.8289 1.03898 15.753 1.07987C15.6771 1.12076 15.6125 1.17985 15.565 1.25184L14.351 3.38084L12.1 2.53184C12.0018 2.4943 11.8942 2.48869 11.7926 2.51582C11.6909 2.54295 11.6005 2.60144 11.534 2.68297C11.4675 2.7645 11.4285 2.8649 11.4224 2.96991C11.4163 3.07492 11.4435 3.17917 11.5 3.26784L12.7 5.14384C12.2201 5.30622 11.801 5.61104 11.4987 6.01768C11.1964 6.42432 11.0252 6.91344 11.008 7.41984V7.44584C11.008 7.46384 11.003 7.48084 11.003 7.49984V9.99984H4.07504C3.9525 9.9989 3.83389 10.043 3.74172 10.1237C3.64954 10.2045 3.59023 10.3163 3.57504 10.4378C3.5258 10.8735 3.50076 11.3115 3.50004 11.7498C3.50482 12.3035 3.5587 12.8557 3.66104 13.3998C3.14597 13.6035 2.70822 13.9644 2.41002 14.4312C2.11183 14.898 1.96837 15.4469 2.00004 15.9998C2.00004 17.5828 2.70604 20.6728 4.40804 20.9908C4.46867 21.0026 4.53027 21.0087 4.59204 21.0088C4.88759 20.9871 5.17234 20.8885 5.41804 20.7228C5.59109 20.6024 5.79082 20.5259 6.00004 20.4998C6.20591 20.5328 6.40272 20.608 6.57804 20.7208C6.87263 20.9186 7.22384 21.0145 7.57804 20.9938C7.84102 20.9438 8.09141 20.8419 8.3146 20.694C8.5378 20.5462 8.72933 20.3554 8.87804 20.1328C10.091 20.698 11.4119 20.9938 12.75 20.9998C12.95 20.9998 13.15 20.9818 13.35 20.9698C13.3983 20.9873 13.4488 20.9974 13.5 20.9998H18.5C19.1631 20.9998 19.799 20.7365 20.2678 20.2676C20.7366 19.7988 21 19.1629 21 18.4998V15.9108C21.6562 14.6219 21.9988 13.1962 22 11.7498ZM20 7.49984V8.58684L15.949 5.99984H18.5C18.8979 5.99984 19.2794 6.15788 19.5607 6.43918C19.842 6.72049 20 7.10202 20 7.49984ZM14.4 4.46784C14.5115 4.51018 14.6345 4.51128 14.7467 4.47094C14.8589 4.4306 14.953 4.35147 15.012 4.24784L16 2.50884L16.992 4.24784C17.0511 4.35147 17.1452 4.4306 17.2574 4.47094C17.3696 4.51128 17.4926 4.51018 17.604 4.46784L18.847 3.99984L18.21 4.99984H13.79L13.153 3.99984L14.4 4.46784ZM13.5 5.99984H14.09L20 9.77384V9.99984H16.638L12.027 7.23284C12.0895 6.88746 12.2711 6.57492 12.5403 6.34962C12.8094 6.12433 13.149 6.00056 13.5 5.99984ZM12 8.38284L14.7 9.99984H12V8.38284ZM7.43104 20.0048C7.29508 19.966 7.16493 19.9092 7.04404 19.8358C6.72901 19.6396 6.37039 19.5242 6.00004 19.4998C5.61795 19.5183 5.24794 19.6396 4.92904 19.8508C4.8245 19.9178 4.7115 19.9706 4.59304 20.0078C3.68404 19.8378 3.00004 17.4588 3.00004 15.9998C3.00004 15.2108 3.28604 14.1998 5.41304 14.0328C5.41366 14.3842 5.44714 14.7347 5.51304 15.0798C5.53758 15.1908 5.59919 15.2901 5.68772 15.3613C5.77624 15.4326 5.8864 15.4716 6.00004 15.4718C6.03571 15.4718 6.07126 15.4678 6.10604 15.4598C6.23535 15.4318 6.34827 15.3536 6.42006 15.2425C6.49185 15.1313 6.51666 14.9963 6.48904 14.8668C6.44034 14.5881 6.41558 14.3058 6.41504 14.0228C8.70004 14.1418 9.00004 15.1908 9.00004 15.9998C9.00004 17.5678 8.40004 19.8508 7.43104 20.0048ZM9.36504 19.2588C9.49477 18.9485 9.6014 18.6289 9.68404 18.3028C10.7251 18.7968 11.8693 19.0344 13.021 18.9957C14.1726 18.957 15.2983 18.6432 16.3039 18.0805C17.3094 17.5178 18.1657 16.7226 18.8011 15.7613C19.4365 14.8 19.8325 13.7005 19.956 12.5548C19.9637 12.4894 19.9583 12.4231 19.9403 12.3598C19.9223 12.2964 19.8919 12.2373 19.8509 12.1857C19.8099 12.1341 19.7591 12.0911 19.7015 12.0593C19.6439 12.0274 19.5805 12.0072 19.515 11.9998C19.4495 11.9914 19.383 11.9962 19.3193 12.014C19.2557 12.0318 19.1963 12.0622 19.1447 12.1035C19.0931 12.1447 19.0503 12.1959 19.0189 12.2541C18.9876 12.3122 18.9682 12.3761 18.962 12.4418C18.8527 13.4497 18.4992 14.4158 17.9321 15.2561C17.365 16.0965 16.6015 16.7859 15.7078 17.2645C14.8141 17.743 13.8171 17.9964 12.8033 18.0026C11.7895 18.0087 10.7895 17.7675 9.89004 17.2998C9.95758 16.8697 9.99434 16.4352 10 15.9998C10 14.7058 9.37604 13.1778 6.51204 13.0158C6.55179 12.8114 6.60865 12.6107 6.68204 12.4158C6.72724 12.2929 6.72237 12.157 6.66846 12.0376C6.61455 11.9182 6.51591 11.8247 6.39377 11.7773C6.27163 11.7298 6.13575 11.7322 6.01536 11.7839C5.89497 11.8357 5.7997 11.9326 5.75004 12.0538C5.6324 12.3653 5.54695 12.688 5.49504 13.0168C5.20387 13.0317 4.91395 13.0651 4.62704 13.1168C4.54675 12.6655 4.50427 12.2083 4.50004 11.7498C4.50004 11.5288 4.51204 11.2548 4.52904 10.9998H20.971C20.988 11.2548 21 11.5288 21 11.7498C21.0046 13.1289 20.6623 14.487 20.0045 15.6991C19.3468 16.9112 18.3948 17.9384 17.2361 18.6862C16.0773 19.434 14.7492 19.8784 13.3737 19.9785C11.9983 20.0785 10.6198 19.8311 9.36504 19.2588ZM20 18.4998C20 18.8977 19.842 19.2792 19.5607 19.5605C19.2794 19.8418 18.8979 19.9998 18.5 19.9998H16.911C18.1112 19.3923 19.1651 18.5315 20 17.4768V18.4998Z" fill="#FE6E4C"/>
<path d="M16.5 12C16.3674 12 16.2402 12.0527 16.1464 12.1464C16.0527 12.2402 16 12.3674 16 12.5V13.5C16 13.6326 16.0527 13.7598 16.1464 13.8536C16.2402 13.9473 16.3674 14 16.5 14C16.6326 14 16.7598 13.9473 16.8536 13.8536C16.9473 13.7598 17 13.6326 17 13.5V12.5C17 12.3674 16.9473 12.2402 16.8536 12.1464C16.7598 12.0527 16.6326 12 16.5 12Z" fill="#FE6E4C"/>
<path d="M10.5 12C10.3674 12 10.2402 12.0527 10.1464 12.1464C10.0527 12.2402 10 12.3674 10 12.5V13.5C10 13.6326 10.0527 13.7598 10.1464 13.8536C10.2402 13.9473 10.3674 14 10.5 14C10.6326 14 10.7598 13.9473 10.8536 13.8536C10.9473 13.7598 11 13.6326 11 13.5V12.5C11 12.3674 10.9473 12.2402 10.8536 12.1464C10.7598 12.0527 10.6326 12 10.5 12Z" fill="#FE6E4C"/>
<path d="M13.5 13C13.3674 13 13.2402 13.0527 13.1464 13.1464C13.0527 13.2402 13 13.3674 13 13.5V14.5C13 14.6326 13.0527 14.7598 13.1464 14.8536C13.2402 14.9473 13.3674 15 13.5 15C13.6326 15 13.7598 14.9473 13.8536 14.8536C13.9473 14.7598 14 14.6326 14 14.5V13.5C14 13.3674 13.9473 13.2402 13.8536 13.1464C13.7598 13.0527 13.6326 13 13.5 13Z" fill="#FE6E4C"/>
</svg>
