<svg width="4" height="14" viewBox="0 0 4 14" fill="none" xmlns="http://www.w3.org/2000/svg">
<path fill-rule="evenodd" clip-rule="evenodd" d="M2.00004 2.33333C2.64437 2.33333 3.16671 1.811 3.16671 1.16667C3.16671 0.522334 2.64437 0 2.00004 0C1.35571 0 0.833374 0.522334 0.833374 1.16667C0.833374 1.811 1.35571 2.33333 2.00004 2.33333ZM2.00004 8.16667C2.64437 8.16667 3.16671 7.64433 3.16671 7C3.16671 6.35567 2.64437 5.83333 2.00004 5.83333C1.35571 5.83333 0.833374 6.35567 0.833374 7C0.833374 7.64433 1.35571 8.16667 2.00004 8.16667ZM3.16671 12.8333C3.16671 13.4777 2.64437 14 2.00004 14C1.35571 14 0.833374 13.4777 0.833374 12.8333C0.833374 12.189 1.35571 11.6667 2.00004 11.6667C2.64437 11.6667 3.16671 12.189 3.16671 12.8333Z" fill="#838589"/>
</svg>
