<svg width="20" height="20" viewBox="0 0 20 20" fill="none" xmlns="http://www.w3.org/2000/svg">
<path fill-rule="evenodd" clip-rule="evenodd" d="M9.77343 18.2617C9.86572 18.3099 9.96891 18.3344 10.0721 18.3336C10.1753 18.3328 10.2776 18.3075 10.3708 18.2584L13.344 16.669C14.1871 16.2196 14.8474 15.717 15.3625 15.1319C16.4825 13.8572 17.0941 12.2302 17.0832 10.5525L17.048 5.01864C17.0446 4.38125 16.626 3.8125 16.0068 3.60576L10.4756 1.74996C10.1426 1.63719 9.77763 1.63964 9.45044 1.75568L3.94022 3.67767C3.32444 3.89258 2.91335 4.46542 2.91671 5.10363L2.95194 10.6334C2.96285 12.3135 3.59542 13.9332 4.73387 15.1949C5.25402 15.7718 5.92014 16.267 6.77251 16.7091L9.77343 18.2617ZM8.98633 11.7578C9.11049 11.8771 9.27157 11.9359 9.43265 11.9343C9.59373 11.9335 9.75397 11.873 9.87645 11.752L13.1257 8.54874C13.3698 8.30767 13.3673 7.92033 13.1207 7.68254C12.8732 7.44474 12.4747 7.44637 12.2305 7.68744L9.42342 10.4544L8.27406 9.34957C8.02657 9.11177 7.62891 9.11422 7.38394 9.35529C7.1398 9.59635 7.14232 9.98369 7.38981 10.2215L8.98633 11.7578Z" fill="#3669C9"/>
</svg>
